<?xml version="1.0" encoding="utf-8"?>
<!-- Generator: Adobe Illustrator 22.1.0, SVG Export Plug-In . SVG Version: 6.00 Build 0)  -->
<svg version="1.1" id="Layer_1" xmlns="http://www.w3.org/2000/svg" xmlns:xlink="http://www.w3.org/1999/xlink" x="0px" y="0px"
	 viewBox="0 0 197 130.8" style="enable-background:new 0 0 197 130.8;" xml:space="preserve">
<style type="text/css">
	.st0{fill:#444444;}
	.st1{fill:#333333;}
</style>
<g>
	<path class="st0" d="M36.3,71h8.3l0.9-0.4l0,3.9l-0.3-0.9c-0.2-0.6-0.4-1.4-0.8-1.6C44.1,72,43.9,72,43.6,72h-2.3v10.3
		c0,0.4,0,0.7,0.2,0.9c0.2,0.3,1.1,0.4,1.6,0.6l0.4,0.2h-6l0.4-0.1c0.5-0.1,1.5-0.4,1.6-0.6c0.2-0.3,0.2-0.7,0.2-1V72L37,72
		c-0.2,0-0.3,0-0.5,0.1c-0.4,0.2-0.5,1.1-0.7,1.8l-0.2,0.6l-0.1-3.8L36.3,71z"/>
	<path class="st0" d="M53.8,73.3L52,77.9h3.6L53.8,73.3z M58.7,82.2c0.1,0.3,0.2,0.5,0.4,0.9c0.2,0.3,0.9,0.5,1.4,0.8l0.4,0.2h-5.2
		l0.5-0.2c0.4-0.2,1.1-0.3,1.2-0.7c0.1-0.2-0.1-0.8-0.2-1.1l-1.2-3.3h-4.3l-1.2,3.3c-0.1,0.4-0.3,1-0.3,1.1c0.1,0.3,0.7,0.4,1.2,0.6
		l0.5,0.2h-4.8l0.4-0.1c0.5-0.2,1.3-0.4,1.5-0.8c0.2-0.3,0.2-0.5,0.4-0.9c1.6-3.7,3.6-9.1,4-10.1c0.1-0.5,0.2-0.7,0.3-1.2h1.2
		c0.1,0.4,0.1,0.6,0.2,0.9C55.6,74.2,58.3,81.2,58.7,82.2"/>
	<path class="st0" d="M69.1,71.2l0,3.4l-0.7-1.8c-0.3-0.8-1-1-2.1-1.1c-1.5-0.1-2.7,1.1-2.7,2.5c0,1.4,1.6,2.1,2.4,2.5
		c1.9,1,3.8,1.8,3.9,3.9c0,2.4-1.7,3.6-4.1,3.7c-0.9,0-1.8-0.2-2.2-0.3l-0.8-0.2l-0.1-3.3l0.6,1.5c0.4,1,1.4,1.3,2.3,1.4
		c1.6,0.2,3.1-0.8,3-2.4c-0.1-1.6-1.5-2.1-2.9-2.9c-1.8-1-3.1-1.5-3.3-3.6c-0.1-2.3,1.9-3.7,4-3.7c0.9,0,1.9,0.2,2.4,0.3L69.1,71.2z
		"/>
	<path class="st0" d="M85.1,73.1c0.4-0.8,0.6-1.3,1-2.1h1c0.1,1,0.1,1.6,0.2,2.6c0.3,3.3,0.8,8.4,0.8,8.4c0.1,0.4,0.1,0.8,0.3,1.1
		c0.2,0.3,0.9,0.5,1.4,0.7L90,84h-5.5l0.6-0.2c0.5-0.2,1-0.3,1.2-0.6c0.4-0.6,0.2-1.1,0.2-1.5l-0.7-8c-0.7,1.2-3.2,5.7-4.4,8
		c-0.5,0.9-1.1,2.2-1.1,2.4c-0.1-0.2-0.6-1.1-1-1.8c-2.6-4.8-4.3-7.6-4.7-8.1L74.1,81c0,0.4-0.2,1.7,0.1,2.3
		c0.2,0.3,0.7,0.4,1.2,0.6l0.5,0.2h-4.6l0.3-0.1c0.5-0.2,1.2-0.4,1.3-0.7c0.2-0.3,0.2-1.3,0.2-2.1c0.3-2.5,0.4-5.9,0.5-7.3
		c0.1-1.1,0.1-1.8,0.1-2.8h1c0.1,0.4,0.4,1.1,0.6,1.5c1.2,2.5,4.6,8.3,5.2,9C81.4,80.1,83.3,76.4,85.1,73.1"/>
	<path class="st0" d="M98.1,73.3l-1.8,4.6h3.6L98.1,73.3z M103.1,82.2c0.1,0.3,0.2,0.5,0.4,0.9c0.2,0.3,0.9,0.5,1.4,0.8l0.4,0.2
		h-5.2l0.5-0.2c0.4-0.2,1.1-0.3,1.2-0.7c0.1-0.2-0.1-0.8-0.2-1.1l-1.2-3.3H96l-1.2,3.3c-0.1,0.4-0.3,1-0.3,1.1
		c0.1,0.3,0.7,0.4,1.2,0.6l0.5,0.2h-4.8l0.4-0.1c0.5-0.2,1.3-0.4,1.5-0.8c0.2-0.3,0.2-0.5,0.4-0.9c1.6-3.7,3.6-9.1,4-10.1
		c0.1-0.5,0.2-0.7,0.3-1.2H99c0.1,0.4,0.1,0.6,0.2,0.9C100,74.2,102.7,81.2,103.1,82.2"/>
	<path class="st0" d="M109.3,73.3v7.6c0,0.4-0.1,1.8,0.2,2.3c0.1,0.3,0.7,0.5,1.2,0.6l0.5,0.2h-4.6l0.3-0.1c0.5-0.2,1.1-0.4,1.3-0.7
		c0.2-0.3,0.2-1.5,0.2-2.2V71h1c0.3,0.3,0.6,0.8,1.2,1.4c3,3.1,8.2,8.5,8.9,9.2v-7.5c0-0.9,0.1-1.9-0.1-2.3
		c-0.2-0.3-0.8-0.5-1.3-0.7l-0.3-0.1h4.6l-0.5,0.2c-0.5,0.2-0.8,0.4-1.1,0.6c-0.3,0.3-0.2,2.3-0.2,2.3v10h-0.8c-2.9-3.3-1.8-2-3-3.3
		C113.9,77.8,110.5,74.4,109.3,73.3"/>
	<path class="st0" d="M127.2,82.3c0,0.4,0,0.7,0.2,0.9c0.2,0.3,1.1,0.4,1.6,0.6l0.4,0.2h-6l0.4-0.1c0.5-0.1,1.5-0.4,1.6-0.6
		c0.2-0.3,0.2-0.7,0.2-1v-9.5c0-0.3,0.1-0.7-0.2-1c-0.2-0.2-1.2-0.5-1.6-0.6l-0.4-0.1h6l-0.4,0.2c-0.5,0.2-1.4,0.3-1.6,0.6
		c-0.2,0.3-0.2,0.6-0.2,1V82.3z"/>
	<path class="st0" d="M137.5,73.3l-1.8,4.6h3.6L137.5,73.3z M142.5,82.2c0.1,0.3,0.2,0.5,0.4,0.9c0.2,0.3,0.9,0.5,1.4,0.8l0.4,0.2
		h-5.2l0.5-0.2c0.4-0.2,1.1-0.3,1.2-0.7c0.1-0.2-0.1-0.8-0.2-1.1l-1.2-3.3h-4.3l-1.2,3.3c-0.1,0.4-0.3,1-0.3,1.1
		c0.1,0.3,0.7,0.4,1.2,0.6l0.5,0.2h-4.8l0.4-0.1c0.5-0.2,1.3-0.4,1.5-0.8c0.2-0.3,0.2-0.5,0.4-0.9c1.6-3.7,3.6-9.1,4-10.1
		c0.1-0.5,0.2-0.7,0.3-1.2h1.2c0.1,0.4,0.1,0.6,0.2,0.9C139.4,74.2,142.1,81.2,142.5,82.2"/>
	<path class="st0" d="M148.7,73.3v7.6c0,0.4-0.1,1.8,0.2,2.3c0.1,0.3,0.7,0.5,1.2,0.6l0.5,0.2H146l0.3-0.1c0.5-0.2,1.1-0.4,1.3-0.7
		c0.2-0.3,0.2-1.5,0.2-2.2V71h1c0.3,0.3,0.6,0.8,1.2,1.4c3,3.1,8.2,8.5,8.9,9.2v-7.5c0-0.9,0.1-1.9-0.1-2.3
		c-0.2-0.3-0.8-0.5-1.3-0.7l-0.3-0.1h4.6l-0.5,0.2c-0.5,0.2-0.8,0.4-1.1,0.6c-0.3,0.3-0.2,2.3-0.2,2.3v10h-0.8c-2.9-3.3-1.8-2-3-3.3
		C153.3,77.8,149.9,74.4,148.7,73.3"/>
	<path class="st0" d="M11.6,88.1l0,3.5l-0.4-1.1c-0.2-0.6-0.4-1.2-0.8-1.5c-0.4-0.2-2-0.6-3.2-0.5c-3.2,0.2-5.6,2.6-5.6,5.9
		c0,3.2,2.6,5.9,6,5.9c1.5,0,3.1-0.5,3.7-1.2c0.4-0.4,0.7-1.2,0.9-1.6l0.5-0.8l-0.8,3.8l-0.6,0.2c-1.3,0.5-2.3,0.6-4.4,0.6
		c-3.1,0-6.7-2.7-6.8-6.5c-0.1-4.1,3.3-6.9,7.3-7.2c1.5-0.1,2.5,0,3.9,0.4L11.6,88.1z"/>
	<path class="st0" d="M20.8,100.3c3,0.2,5.7-2.1,5.7-5.5c0-3.2-2.5-6.1-5.8-6c-3.2,0.1-5.2,2.7-5.2,5.7
		C15.6,97.3,17.7,100.1,20.8,100.3 M20.7,101.2c-3.7,0-6.6-3-6.6-6.8c0-3.7,3-6.5,6.6-6.7c3.8-0.2,7.1,2.5,7.2,6.7
		C28,98.6,24.6,101.3,20.7,101.2"/>
	<path class="st0" d="M43.1,90.1c0.4-0.8,0.6-1.3,1-2.1h1c0.1,1,0.1,1.6,0.2,2.6c0.3,3.3,0.8,8.4,0.8,8.4c0.1,0.4,0.1,0.8,0.3,1.1
		c0.2,0.3,0.9,0.5,1.4,0.7l0.4,0.2h-5.5l0.6-0.2c0.5-0.2,1-0.3,1.2-0.6c0.4-0.6,0.2-1.1,0.2-1.5l-0.7-8c-0.7,1.2-3.2,5.7-4.4,8
		c-0.5,0.9-1.1,2.2-1.1,2.4c-0.1-0.2-0.6-1.1-1-1.8c-2.6-4.8-4.3-7.6-4.7-8.1L32.1,98c0,0.4-0.2,1.7,0.1,2.3
		c0.2,0.3,0.7,0.4,1.2,0.6l0.5,0.2h-4.6l0.3-0.1c0.5-0.2,1.2-0.4,1.3-0.7c0.2-0.3,0.2-1.3,0.2-2.1c0.3-2.5,0.4-5.9,0.5-7.3
		c0.1-1.1,0.1-1.8,0.1-2.8h1c0.1,0.4,0.4,1.1,0.6,1.5c1.2,2.5,4.6,8.2,5.2,9C39.4,97.1,41.3,93.4,43.1,90.1"/>
	<path class="st0" d="M63.2,90.1c0.4-0.8,0.6-1.3,1-2.1h1c0.1,1,0.1,1.6,0.2,2.6c0.3,3.3,0.8,8.4,0.8,8.4c0.1,0.4,0.1,0.8,0.3,1.1
		c0.2,0.3,0.9,0.5,1.4,0.7l0.4,0.2h-5.5l0.6-0.2c0.5-0.2,1-0.3,1.2-0.6c0.4-0.6,0.2-1.1,0.2-1.5l-0.7-8c-0.7,1.2-3.2,5.7-4.4,8
		c-0.5,0.9-1.1,2.2-1.1,2.4c-0.1-0.2-0.6-1.1-1-1.8c-2.6-4.8-4.3-7.6-4.7-8.1L52.2,98c0,0.4-0.2,1.7,0.1,2.3
		c0.2,0.3,0.7,0.4,1.2,0.6l0.5,0.2h-4.6l0.3-0.1c0.5-0.2,1.2-0.4,1.3-0.7c0.2-0.3,0.2-1.3,0.2-2.1c0.3-2.5,0.4-5.9,0.5-7.3
		c0.1-1.1,0.1-1.8,0.1-2.8h1c0.1,0.4,0.4,1.1,0.6,1.5c1.2,2.5,4.6,8.2,5.2,9C59.5,97.1,61.4,93.4,63.2,90.1"/>
	<path class="st0" d="M81.8,96c0,4-2.5,5.4-5.1,5.4c-2.6,0-5-1.5-5-5.2v-6.4c0-0.3,0.1-0.7-0.2-1c-0.2-0.2-1.2-0.5-1.6-0.6L69.5,88
		h6l-0.4,0.2c-0.5,0.2-1.4,0.3-1.6,0.6c-0.2,0.3-0.2,0.6-0.2,1v6.5c0,2.8,1.4,3.9,3.4,4.2c2.1,0.3,4.2-1.3,4.2-4v-6.5
		c0-0.3,0-0.7-0.2-1c-0.2-0.2-1.2-0.5-1.6-0.6L78.6,88h5.5l-0.4,0.2c-0.5,0.2-1.4,0.4-1.6,0.6c-0.2,0.3-0.3,1.4-0.3,1.6V96z"/>
	<path class="st0" d="M88.2,90.3v7.6c0,0.4-0.1,1.8,0.2,2.3c0.1,0.3,0.7,0.5,1.2,0.6l0.5,0.2h-4.6l0.3-0.1c0.5-0.2,1.1-0.4,1.3-0.7
		c0.2-0.3,0.2-1.5,0.2-2.2V88h1c0.3,0.3,0.6,0.8,1.2,1.4c3,3.1,8.2,8.5,8.9,9.2v-7.5c0-0.9,0.1-1.9-0.1-2.3
		c-0.2-0.3-0.8-0.5-1.3-0.7L96.6,88h4.6l-0.5,0.2c-0.5,0.2-0.8,0.4-1.1,0.6c-0.3,0.3-0.2,2.3-0.2,2.3v10h-0.8c-2.9-3.3-1.8-2-3-3.3
		C92.7,94.8,89.3,91.4,88.2,90.3"/>
	<path class="st0" d="M106.1,99.3c0,0.4,0,0.7,0.2,0.9c0.2,0.3,1.1,0.4,1.6,0.6l0.4,0.2h-6l0.4-0.1c0.5-0.1,1.5-0.4,1.6-0.6
		c0.2-0.3,0.2-0.7,0.2-1v-9.5c0-0.3,0.1-0.7-0.2-1c-0.2-0.2-1.2-0.5-1.6-0.7l-0.4-0.1h6l-0.4,0.2c-0.5,0.2-1.4,0.3-1.6,0.6
		c-0.2,0.3-0.2,0.6-0.2,1V99.3z"/>
	<path class="st0" d="M110.4,88h8.3l0.9-0.4l0,3.9l-0.3-0.9c-0.2-0.6-0.4-1.4-0.8-1.6c-0.3-0.1-0.5-0.1-0.8-0.1h-2.3v10.3
		c0,0.4,0,0.7,0.2,0.9c0.2,0.3,1.1,0.4,1.6,0.6l0.4,0.2h-6l0.4-0.1c0.5-0.1,1.5-0.4,1.6-0.6c0.2-0.3,0.2-0.7,0.2-1V89l-2.7,0
		c-0.2,0-0.3,0-0.5,0.1c-0.4,0.2-0.5,1.1-0.7,1.8l-0.2,0.6l-0.1-3.8L110.4,88z"/>
	<path class="st0" d="M125.6,92.7c-0.5-0.9-1.3-2.2-1.8-2.9c-0.6-0.8-1.3-1.2-2-1.5l-0.7-0.3l0.6-0.1c0.5-0.1,2,0.2,2.8,0.9
		c0.9,0.8,1.6,2,2.1,2.9l1,1.9l2-3.5c0.3-0.5,0.5-1,0.5-1.1c-0.1-0.3-0.4-0.4-1.3-0.8l-0.3-0.1h5l-0.4,0.1c-0.5,0.2-1.1,0.2-1.6,0.7
		c-0.3,0.2-0.4,0.6-0.7,1l-2.6,4.4l0,5c0,0.4,0,0.7,0.3,0.9c0.2,0.3,1.1,0.4,1.6,0.6l0.4,0.2h-6l0.4-0.1c0.5-0.1,1.5-0.4,1.6-0.6
		c0.2-0.3,0.2-0.7,0.2-1v-4.4L125.6,92.7z"/>
	<path class="st0" d="M149,88l0,2.9l-0.2-0.7c-0.2-0.5-0.2-0.9-0.6-1.1c-0.3-0.2-0.7-0.2-1.1-0.2h-1.8c-0.3,0-0.7,0-0.9,0.1
		c-0.2,0.2-0.1,0.4-0.1,0.7V94h2.3c0.5,0,0.8,0.1,1.2-0.2c0.2-0.1,0.2-0.3,0.4-0.5l0.4-0.7v4.1l-0.1-0.4c-0.2-0.5-0.3-1.1-0.7-1.3
		c-0.4-0.2-0.6-0.2-1-0.2h-2.4v4.5c0,0.4,0,0.7,0.2,0.9c0.2,0.3,1.1,0.4,1.6,0.6l0.4,0.2h-6l0.4-0.1c0.5-0.1,1.5-0.4,1.6-0.6
		c0.2-0.3,0.2-0.7,0.2-1v-9.5c0-0.4,0.1-0.7-0.2-1c-0.2-0.2-1.2-0.5-1.6-0.7l-0.4-0.1H149z"/>
	<path class="st0" d="M162.7,96c0,4-2.5,5.4-5.1,5.4c-2.6,0-5-1.5-5-5.2v-6.4c0-0.3,0.1-0.7-0.2-1c-0.2-0.2-1.2-0.5-1.6-0.6
		l-0.4-0.1h6l-0.4,0.2c-0.5,0.2-1.4,0.3-1.6,0.6c-0.2,0.3-0.2,0.6-0.2,1v6.5c0,2.8,1.4,3.9,3.4,4.2c2.1,0.3,4.2-1.3,4.2-4v-6.5
		c0-0.3,0-0.7-0.2-1c-0.2-0.2-1.2-0.5-1.6-0.6l-0.4-0.2h5.5l-0.4,0.2c-0.5,0.2-1.4,0.4-1.6,0.6c-0.2,0.3-0.3,1.4-0.3,1.6V96z"/>
	<path class="st0" d="M169.1,90.3v7.6c0,0.4-0.1,1.8,0.2,2.3c0.1,0.3,0.7,0.5,1.2,0.6l0.5,0.2h-4.6l0.3-0.1c0.5-0.2,1.1-0.4,1.3-0.7
		c0.2-0.3,0.2-1.5,0.2-2.2V88h1c0.3,0.3,0.6,0.8,1.2,1.4c3,3.1,8.2,8.5,8.9,9.2v-7.5c0-0.9,0.1-1.9-0.1-2.3
		c-0.2-0.3-0.8-0.5-1.3-0.7l-0.3-0.1h4.6l-0.5,0.2c-0.5,0.2-0.8,0.4-1.1,0.6c-0.3,0.3-0.2,2.3-0.2,2.3v10h-0.8c-2.9-3.3-1.8-2-3-3.3
		C173.6,94.8,170.2,91.4,169.1,90.3"/>
	<path class="st0" d="M186.9,99.2c0,0.4,0.1,0.7,0.4,0.8c0.3,0.2,3.3,0.4,4.6-0.2c1.2-0.5,3.5-1.3,3.6-5c0.1-2.7-1.6-5.2-4.5-5.8
		c-0.5-0.1-3.3-0.2-3.9,0.1c-0.2,0.1-0.2,0.4-0.2,0.6V99.2z M186.9,101.1h-3.7l0.4-0.1c0.5-0.2,1.3-0.4,1.5-0.7
		c0.2-0.3,0.3-0.5,0.3-0.8v-9.6c0-0.3,0-0.6-0.2-0.8c-0.2-0.3-1.1-0.5-1.6-0.7l-0.4-0.2h3.2c0.9,0,3.1-0.2,5.1,0.1
		c1.8,0.2,5.1,1.9,5.4,5.6c0.5,5.5-4.4,7.1-5.8,7.4C190,101.3,187.8,101.1,186.9,101.1"/>
	<path class="st0" d="M96.2,42.8c0-3.2-2.6-5.9-5.9-5.9v0c-0.2,0-0.5,0-0.7,0c-8.5,0-15.3-6.7-15.3-14.9c0-4.6,2.1-8.7,5.5-11.5
		c-6,3.6-10,10.1-10,17.6c0,11.3,9.2,20.5,20.5,20.5h0C93.6,48.7,96.2,46.1,96.2,42.8"/>
	<path class="st0" d="M113.2,30.9c-3.2,0-5.9,2.6-5.9,5.9h0c0,0.2,0,0.5,0,0.7c0,8.5-6.7,15.3-14.9,15.3c-4.6,0-8.7-2.1-11.5-5.5
		c3.6,6,10.1,10,17.6,10c11.3,0,20.5-9.2,20.5-20.5v0C119.1,33.5,116.5,30.9,113.2,30.9"/>
	<path class="st0" d="M101.3,14.6c0,3.2,2.6,5.9,5.9,5.9v0c0.2,0,0.5,0,0.7,0c8.5,0,15.3,6.7,15.3,14.9c0,4.6-2.1,8.7-5.5,11.5
		c6-3.6,10-10.1,10-17.6c0-11.3-9.2-20.5-20.5-20.5C103.9,8.8,101.3,11.4,101.3,14.6"/>
	<path class="st0" d="M84.1,26.4c3.2,0,5.9-2.6,5.9-5.9h0c0-0.2,0-0.5,0-0.7c0-8.5,6.7-15.3,14.9-15.3c4.6,0,8.7,2.1,11.5,5.5
		c-3.6-6-10.1-10-17.6-10C87.4,0,78.2,9.2,78.2,20.5C78.2,23.8,80.8,26.4,84.1,26.4"/>
	<path class="st0" d="M24.1,117.3c0,0.9,0,1.6,0,2c0,0.3,0.1,0.5,0.4,0.5c0.1,0,0.3,0,0.4,0c0.1,0,0.1,0,0.1,0.1c0,0,0,0.1-0.1,0.1
		c-0.5,0-1.1,0-1.1,0s-0.6,0-0.9,0c-0.1,0-0.1,0-0.1-0.1c0,0,0-0.1,0.1-0.1c0.1,0,0.2,0,0.3,0c0.2,0,0.2-0.2,0.3-0.5
		c0-0.4,0-1.1,0-2v-1.6c0-1.4,0-1.7,0-1.9c0-0.3-0.1-0.5-0.3-0.5c-0.1,0-0.2,0-0.3,0c0,0-0.1,0-0.1-0.1c0-0.1,0-0.1,0.1-0.1
		c0.3,0,0.9,0,0.9,0s0.6,0,0.9,0c0.1,0,0.1,0,0.1,0.1c0,0,0,0.1-0.1,0.1c-0.1,0-0.1,0-0.2,0c-0.2,0-0.3,0.2-0.3,0.5
		c0,0.3,0,0.5,0,1.9V117.3z"/>
	<path class="st0" d="M26.7,118.8c0,0.6,0.1,0.8,0.3,0.9c0.1,0,0.3,0,0.4,0c0,0,0.1,0,0.1,0.1c0,0-0.1,0.1-0.1,0.1
		c-0.4,0-0.8,0-0.8,0c-0.1,0-0.4,0-0.8,0c-0.1,0-0.1,0-0.1-0.1c0,0,0-0.1,0.1-0.1c0.1,0,0.2,0,0.3,0c0.2-0.1,0.2-0.3,0.2-1v-4.4
		c0-0.3,0-0.4,0.1-0.4c0.1,0,0.2,0.2,0.3,0.2c0.1,0.1,1.3,1.3,2.5,2.6c0.8,0.8,1.6,1.7,1.9,2l-0.1-3.8c0-0.5-0.1-0.7-0.3-0.7
		c-0.1,0-0.3,0-0.4,0c-0.1,0-0.1,0-0.1-0.1c0,0,0.1-0.1,0.2-0.1c0.4,0,0.7,0,0.8,0s0.4,0,0.7,0c0.1,0,0.1,0,0.1,0.1
		c0,0,0,0.1-0.1,0.1c0,0-0.1,0-0.2,0c-0.3,0.1-0.3,0.2-0.3,0.7l0,4.5c0,0.5,0,0.5-0.1,0.5c-0.1,0-0.2-0.1-0.6-0.5
		c-0.1-0.1-1.2-1.2-2.1-2.1c-0.9-1-1.8-1.9-2.1-2.2L26.7,118.8z"/>
	<path class="st0" d="M35.4,118.9c0.5-1,1.5-3.6,1.7-4.2c0-0.1,0.1-0.2,0.1-0.3c0-0.1,0-0.1-0.1-0.2c-0.1,0-0.2,0-0.3,0
		c0,0-0.1,0-0.1-0.1c0,0,0.1-0.1,0.2-0.1c0.3,0,0.7,0,0.8,0c0,0,0.4,0,0.6,0c0.1,0,0.1,0,0.1,0.1c0,0,0,0.1-0.1,0.1
		c-0.1,0-0.2,0-0.4,0.1c-0.1,0.1-0.2,0.2-0.4,0.7c-0.1,0.2-0.5,1.1-0.9,2.1c-0.5,1.1-0.8,1.9-1,2.3c-0.2,0.5-0.3,0.6-0.3,0.6
		c-0.1,0-0.1-0.1-0.3-0.5l-1.9-4.7c-0.2-0.4-0.3-0.5-0.5-0.6c-0.1,0-0.3,0-0.3,0c0,0-0.1,0-0.1-0.1c0,0,0.1-0.1,0.2-0.1
		c0.4,0,0.8,0,0.9,0c0.1,0,0.4,0,0.7,0c0.1,0,0.2,0,0.2,0.1c0,0,0,0.1-0.1,0.1c-0.1,0-0.2,0-0.3,0c-0.1,0-0.1,0.1-0.1,0.1
		c0,0.1,0.1,0.3,0.2,0.6L35.4,118.9z"/>
	<path class="st0" d="M39.2,116.3c0-1.2,0-1.4,0-1.6c0-0.3-0.1-0.4-0.3-0.4c-0.1,0-0.2,0-0.3,0c0,0-0.1,0-0.1-0.1c0,0,0-0.1,0.1-0.1
		c0.4,0,0.9,0,0.9,0c0.1,0,1.7,0,1.9,0c0.2,0,0.3,0,0.4,0c0,0,0.1,0,0.1,0c0,0,0,0,0,0.1c0,0.1,0,0.1-0.1,0.4c0,0.1,0,0.4,0,0.5
		c0,0,0,0.1-0.1,0.1c0,0-0.1,0-0.1-0.1c0-0.1,0-0.2,0-0.3c-0.1-0.1-0.1-0.2-0.6-0.2c-0.1,0-1.1,0-1.1,0c0,0,0,0,0,0.1v2.1
		c0,0.1,0,0.1,0,0.1c0.1,0,1.1,0,1.3,0c0.2,0,0.3,0,0.4-0.1c0.1-0.1,0.1-0.1,0.1-0.1c0,0,0,0,0,0.1c0,0,0,0.2-0.1,0.4
		c0,0.2,0,0.4,0,0.5c0,0.1,0,0.1-0.1,0.1c0,0-0.1,0-0.1-0.1c0-0.1,0-0.2,0-0.3c0-0.1-0.1-0.2-0.4-0.2c-0.2,0-1.1,0-1.2,0
		c0,0-0.1,0-0.1,0.1v0.6c0,0.3,0,1.2,0,1.3c0,0.5,0.2,0.6,0.9,0.6c0.2,0,0.6,0,0.8-0.1c0.2-0.1,0.3-0.2,0.4-0.5c0-0.1,0-0.1,0.1-0.1
		c0,0,0.1,0.1,0.1,0.1c0,0.1-0.1,0.6-0.1,0.7c-0.1,0.2-0.1,0.2-0.4,0.2c-0.6,0-1.1,0-1.4,0c-0.3,0-0.5,0-0.7,0c0,0-0.2,0-0.3,0
		c-0.2,0-0.3,0-0.5,0c-0.1,0-0.1,0-0.1-0.1c0,0,0-0.1,0.1-0.1c0.1,0,0.2,0,0.2,0c0.2,0,0.2-0.2,0.2-0.4c0-0.3,0-0.9,0-1.7V116.3z"/>
	<path class="st0" d="M42.9,119.8c-0.1-0.1-0.1-0.1-0.1-0.3c0-0.4,0-0.7,0-0.8c0-0.1,0-0.1,0.1-0.1c0,0,0.1,0,0.1,0.1
		c0,0.1,0,0.2,0,0.3c0.1,0.6,0.7,0.8,1.3,0.8c0.8,0,1.2-0.4,1.2-1c0-0.5-0.3-0.8-1-1.3l-0.4-0.3c-0.9-0.6-1.1-1.1-1.1-1.6
		c0-0.9,0.7-1.4,1.8-1.4c0.3,0,0.6,0,0.8,0.1c0.2,0,0.2,0,0.3,0s0.1,0,0.1,0.1c0,0,0,0.3,0,0.8c0,0.1,0,0.2-0.1,0.2s-0.1,0-0.1-0.1
		c0-0.1-0.1-0.3-0.1-0.4c-0.1-0.1-0.3-0.4-1-0.4c-0.6,0-1.1,0.3-1.1,0.8c0,0.5,0.2,0.8,1,1.3l0.2,0.2c1,0.7,1.3,1.2,1.3,1.8
		c0,0.4-0.2,0.9-0.7,1.3c-0.3,0.2-0.8,0.3-1.3,0.3C43.7,120,43.2,119.9,42.9,119.8"/>
	<path class="st0" d="M49.3,117.7c0,0.7,0,1.3,0,1.7c0,0.2,0.1,0.4,0.3,0.4c0.1,0,0.3,0,0.4,0c0.1,0,0.1,0,0.1,0.1
		c0,0,0,0.1-0.1,0.1c-0.4,0-0.9,0-1,0c0,0-0.6,0-0.8,0c-0.1,0-0.1,0-0.1-0.1c0,0,0-0.1,0.1-0.1c0.1,0,0.2,0,0.2,0
		c0.2,0,0.2-0.2,0.2-0.4c0-0.3,0-0.9,0-1.7v-3.2l-1.1,0c-0.5,0-0.7,0.1-0.8,0.2c-0.1,0.1-0.1,0.2-0.1,0.2c0,0.1,0,0.1-0.1,0.1
		c0,0-0.1,0-0.1-0.1c0-0.1,0.2-0.8,0.2-0.8c0,0,0.1-0.1,0.1-0.1c0.1,0,0.1,0.1,0.4,0.1c0.2,0,0.5,0,0.6,0h3c0.3,0,0.4,0,0.6,0
		c0.1,0,0.2,0,0.2,0c0,0,0,0,0,0.1c0,0.2,0,0.8,0,0.9c0,0.1,0,0.1-0.1,0.1c0,0-0.1,0-0.1-0.1l0-0.1c0-0.2-0.2-0.4-1-0.4l-1,0V117.7z
		"/>
	<path class="st0" d="M53.2,117.7c0,0.7,0,1.3,0,1.7c0,0.2,0.1,0.4,0.3,0.4c0.1,0,0.3,0,0.4,0c0,0,0.1,0,0.1,0.1c0,0,0,0.1-0.1,0.1
		c-0.4,0-1,0-1,0c0,0-0.5,0-0.8,0c-0.1,0-0.1,0-0.1-0.1c0,0,0-0.1,0.1-0.1c0.1,0,0.2,0,0.2,0c0.2,0,0.2-0.2,0.2-0.4
		c0-0.3,0-0.9,0-1.7v-1.4c0-1.2,0-1.4,0-1.6c0-0.3-0.1-0.4-0.3-0.4c-0.1,0-0.2,0-0.2,0c0,0-0.1,0-0.1-0.1c0,0,0-0.1,0.1-0.1
		c0.3,0,0.8,0,0.8,0c0,0,0.5,0,0.8,0c0.1,0,0.1,0,0.1,0.1c0,0,0,0.1-0.1,0.1c-0.1,0-0.1,0-0.2,0c-0.2,0-0.3,0.2-0.3,0.4
		c0,0.2,0,0.5,0,1.6V117.7z"/>
	<path class="st0" d="M55.6,118.8c0,0.6,0.1,0.8,0.3,0.9c0.1,0,0.3,0,0.4,0c0,0,0.1,0,0.1,0.1c0,0-0.1,0.1-0.1,0.1
		c-0.5,0-0.8,0-0.8,0c-0.1,0-0.4,0-0.8,0c-0.1,0-0.1,0-0.1-0.1c0,0,0-0.1,0.1-0.1c0.1,0,0.2,0,0.3,0c0.2-0.1,0.2-0.3,0.2-1v-4.4
		c0-0.3,0-0.4,0.1-0.4c0.1,0,0.2,0.2,0.3,0.2c0.1,0.1,1.3,1.3,2.5,2.6c0.8,0.8,1.6,1.7,1.9,2l-0.1-3.8c0-0.5-0.1-0.7-0.3-0.7
		c-0.1,0-0.3,0-0.4,0c-0.1,0-0.1,0-0.1-0.1c0,0,0.1-0.1,0.2-0.1c0.4,0,0.7,0,0.8,0s0.4,0,0.7,0c0.1,0,0.1,0,0.1,0.1
		c0,0,0,0.1-0.1,0.1c0,0-0.1,0-0.2,0c-0.3,0.1-0.3,0.2-0.3,0.7l0,4.5c0,0.5,0,0.5-0.1,0.5c-0.1,0-0.2-0.1-0.6-0.5
		c-0.1-0.1-1.2-1.2-2.1-2.1c-0.9-1-1.8-1.9-2.1-2.2L55.6,118.8z"/>
	<path class="st0" d="M65.8,117.9c0-0.6,0-0.7-0.3-0.8c-0.1,0-0.2,0-0.3,0c0,0-0.1,0-0.1-0.1c0-0.1,0-0.1,0.1-0.1c0.4,0,0.9,0,0.9,0
		c0,0,0.5,0,0.8,0c0.1,0,0.1,0,0.1,0.1c0,0,0,0.1-0.1,0.1c-0.1,0-0.1,0-0.2,0c-0.2,0-0.3,0.2-0.3,0.4c0,0.2,0,0.5,0,0.8v0.9
		c0,0.3,0,0.4-0.1,0.4c-0.5,0.3-1.2,0.3-1.7,0.3c-0.6,0-1.7-0.1-2.6-0.8c-0.5-0.4-0.9-1.2-0.9-2.2c0-1.2,0.6-2.1,1.3-2.5
		c0.7-0.4,1.5-0.5,2.1-0.5c0.5,0,1.1,0.1,1.2,0.1c0.2,0,0.4,0.1,0.6,0.1c0.1,0,0.1,0,0.1,0.1c0,0.1,0,0.3,0,1.1c0,0.1,0,0.2-0.1,0.2
		c0,0-0.1,0-0.1-0.1c0-0.1-0.1-0.3-0.2-0.5c-0.2-0.3-0.8-0.6-1.8-0.6c-0.5,0-1.1,0-1.7,0.5c-0.5,0.4-0.8,1-0.8,1.9
		c0,1.1,0.6,1.9,0.8,2.1c0.6,0.6,1.3,0.8,2,0.8c0.3,0,0.6,0,0.9-0.1c0.1-0.1,0.2-0.1,0.2-0.2V117.9z"/>
	<path class="st0" d="M71.2,117.7c0,0.7,0,1.3,0,1.7c0,0.2,0.1,0.4,0.3,0.4c0.1,0,0.3,0,0.4,0c0,0,0.1,0,0.1,0.1c0,0,0,0.1-0.1,0.1
		c-0.4,0-1,0-1,0c0,0-0.5,0-0.8,0c-0.1,0-0.1,0-0.1-0.1c0,0,0-0.1,0.1-0.1c0.1,0,0.2,0,0.2,0c0.2,0,0.2-0.2,0.2-0.4
		c0-0.3,0-0.9,0-1.7v-1.4c0-1.2,0-1.4,0-1.6c0-0.3-0.1-0.4-0.3-0.4c-0.1,0-0.2,0-0.2,0c0,0-0.1,0-0.1-0.1c0,0,0-0.1,0.1-0.1
		c0.3,0,0.8,0,0.8,0c0,0,0.5,0,0.8,0c0.1,0,0.1,0,0.1,0.1c0,0,0,0.1-0.1,0.1c-0.1,0-0.1,0-0.2,0c-0.2,0-0.3,0.2-0.3,0.4
		c0,0.2,0,0.5,0,1.6V117.7z"/>
	<path class="st0" d="M73.7,118.8c0,0.6,0.1,0.8,0.3,0.9c0.1,0,0.3,0,0.4,0c0,0,0.1,0,0.1,0.1c0,0-0.1,0.1-0.1,0.1
		c-0.4,0-0.8,0-0.8,0s-0.4,0-0.8,0c-0.1,0-0.1,0-0.1-0.1c0,0,0-0.1,0.1-0.1c0.1,0,0.2,0,0.3,0c0.2-0.1,0.2-0.3,0.2-1v-4.4
		c0-0.3,0-0.4,0.1-0.4c0.1,0,0.2,0.2,0.3,0.2c0.1,0.1,1.3,1.3,2.5,2.6c0.8,0.8,1.6,1.7,1.9,2l-0.1-3.8c0-0.5-0.1-0.7-0.3-0.7
		c-0.1,0-0.3,0-0.4,0c-0.1,0-0.1,0-0.1-0.1c0,0,0.1-0.1,0.2-0.1c0.4,0,0.7,0,0.8,0c0.1,0,0.4,0,0.7,0c0.1,0,0.1,0,0.1,0.1
		c0,0,0,0.1-0.1,0.1c0,0-0.1,0-0.2,0c-0.3,0.1-0.3,0.2-0.3,0.7l0,4.5c0,0.5,0,0.5-0.1,0.5c-0.1,0-0.2-0.1-0.6-0.5
		c-0.1-0.1-1.2-1.2-2.1-2.1c-0.9-1-1.8-1.9-2.1-2.2L73.7,118.8z"/>
	<path class="st0" d="M84.5,117.4C84.5,117.4,84.5,117.4,84.5,117.4l-0.8-2.2c0-0.1-0.1-0.1-0.1,0l-0.7,2.1c0,0,0,0.1,0,0.1H84.5z
		 M83.6,114.2c0.1-0.3,0.1-0.3,0.2-0.3c0.1,0,0.1,0.1,0.2,0.3c0.1,0.3,1.4,3.5,1.9,4.6c0.3,0.7,0.5,0.8,0.7,0.8c0.1,0,0.2,0,0.3,0
		c0,0,0.1,0,0.1,0.1s-0.1,0.1-0.2,0.1c-0.1,0-0.7,0-1.3,0c-0.2,0-0.3,0-0.3-0.1c0,0,0,0,0.1-0.1c0,0,0.1-0.1,0.1-0.2l-0.7-1.8
		c0,0,0,0-0.1,0h-1.8c0,0-0.1,0-0.1,0.1l-0.4,1.2c-0.1,0.2-0.1,0.4-0.1,0.5c0,0.2,0.1,0.2,0.3,0.2h0.1c0.1,0,0.1,0,0.1,0.1
		c0,0,0,0.1-0.1,0.1c-0.2,0-0.6,0-0.7,0c-0.1,0-0.5,0-0.8,0c-0.1,0-0.2,0-0.2-0.1c0,0,0-0.1,0.1-0.1c0.1,0,0.2,0,0.2,0
		c0.4,0,0.5-0.3,0.7-0.7L83.6,114.2z"/>
	<path class="st0" d="M88.2,118.8c0,0.6,0.1,0.8,0.3,0.9c0.1,0,0.3,0,0.4,0c0,0,0.1,0,0.1,0.1c0,0-0.1,0.1-0.1,0.1
		c-0.4,0-0.8,0-0.8,0c-0.1,0-0.4,0-0.8,0c-0.1,0-0.1,0-0.1-0.1c0,0,0-0.1,0.1-0.1c0.1,0,0.2,0,0.3,0c0.2-0.1,0.2-0.3,0.2-1v-4.4
		c0-0.3,0-0.4,0.1-0.4c0.1,0,0.2,0.2,0.3,0.2c0.1,0.1,1.3,1.3,2.5,2.6c0.8,0.8,1.6,1.7,1.9,2l-0.1-3.8c0-0.5-0.1-0.7-0.3-0.7
		c-0.1,0-0.3,0-0.4,0c-0.1,0-0.1,0-0.1-0.1c0,0,0.1-0.1,0.2-0.1c0.4,0,0.7,0,0.8,0c0.1,0,0.4,0,0.7,0c0.1,0,0.1,0,0.1,0.1
		c0,0,0,0.1-0.1,0.1c0,0-0.1,0-0.2,0c-0.3,0.1-0.3,0.2-0.3,0.7l0,4.5c0,0.5,0,0.5-0.1,0.5c-0.1,0-0.2-0.1-0.6-0.5
		c-0.1-0.1-1.2-1.2-2.1-2.1c-0.9-1-1.8-1.9-2.1-2.2L88.2,118.8z"/>
	<path class="st0" d="M95.4,117.1c0,0.8,0,1.5,0,1.7c0,0.2,0,0.5,0.1,0.6c0.1,0.1,0.4,0.3,1.3,0.3c0.7,0,1.4-0.2,1.9-0.7
		c0.4-0.4,0.6-1.1,0.6-1.8c0-1-0.4-1.6-0.7-1.9c-0.7-0.8-1.6-0.9-2.6-0.9c-0.2,0-0.4,0-0.5,0.1c-0.1,0-0.1,0.1-0.1,0.2V117.1z
		 M94.7,116.3c0-1.2,0-1.4,0-1.6c0-0.3-0.1-0.4-0.3-0.4c-0.1,0-0.2,0-0.3,0c0,0-0.1,0-0.1-0.1c0,0,0-0.1,0.1-0.1c0.4,0,0.9,0,0.9,0
		c0.1,0,0.6,0,1.1,0c0.8,0,2.2-0.1,3.2,0.9c0.4,0.4,0.8,1,0.8,1.9c0,1-0.4,1.7-0.9,2.2c-0.3,0.4-1.1,0.9-2.4,0.9c-0.3,0-0.8,0-1.1,0
		c-0.3,0-0.6,0-0.6,0c0,0-0.2,0-0.3,0c-0.2,0-0.4,0-0.5,0c-0.1,0-0.1,0-0.1-0.1c0,0,0-0.1,0.1-0.1c0.1,0,0.2,0,0.2,0
		c0.2,0,0.2-0.2,0.2-0.4c0-0.3,0-0.9,0-1.7V116.3z"/>
	<path class="st0" d="M103.1,119.8c-0.1-0.1-0.1-0.1-0.1-0.3c0-0.4,0-0.8,0-1c0-0.1,0-0.1,0.1-0.1c0.1,0,0.1,0,0.1,0.1
		c0,0.1,0,0.2,0,0.3c0.1,0.7,0.7,0.9,1.3,0.9c0.9,0,1.3-0.6,1.3-1.2c0-0.6-0.3-1-1-1.6l-0.4-0.3c-1-0.8-1.2-1.3-1.2-2
		c0-1,0.7-1.6,1.9-1.6c0.4,0,0.6,0,0.8,0.1c0.2,0,0.2,0,0.3,0c0.1,0,0.1,0,0.1,0.1c0,0,0,0.3,0,1c0,0.1,0,0.2-0.1,0.2
		c-0.1,0-0.1,0-0.1-0.1c0-0.1-0.1-0.4-0.1-0.5c-0.1-0.1-0.3-0.5-1.1-0.5c-0.6,0-1.1,0.4-1.1,1c0,0.5,0.2,0.8,1.1,1.5l0.3,0.2
		c1.1,0.8,1.3,1.4,1.3,2.1c0,0.4-0.1,1.1-0.8,1.5c-0.4,0.3-0.9,0.4-1.4,0.4C103.9,120,103.5,119.9,103.1,119.8"/>
	<path class="st0" d="M109.7,117.7c0,0.7,0,1.3,0,1.7c0,0.2,0.1,0.4,0.3,0.4c0.1,0,0.3,0,0.4,0c0.1,0,0.1,0,0.1,0.1
		c0,0,0,0.1-0.1,0.1c-0.4,0-0.9,0-1,0c0,0-0.6,0-0.8,0c-0.1,0-0.1,0-0.1-0.1c0,0,0-0.1,0.1-0.1c0.1,0,0.2,0,0.2,0
		c0.2,0,0.2-0.2,0.2-0.4c0-0.3,0-0.9,0-1.7v-3.2l-1.1,0c-0.5,0-0.7,0.1-0.8,0.2c-0.1,0.1-0.1,0.2-0.1,0.2c0,0.1,0,0.1-0.1,0.1
		c0,0-0.1,0-0.1-0.1c0-0.1,0.2-0.8,0.2-0.8c0,0,0.1-0.1,0.1-0.1c0.1,0,0.1,0.1,0.4,0.1c0.2,0,0.5,0,0.6,0h3c0.3,0,0.4,0,0.6,0
		c0.1,0,0.2,0,0.2,0c0,0,0,0,0,0.1c0,0.2,0,0.8,0,0.9c0,0.1,0,0.1-0.1,0.1c0,0-0.1,0-0.1-0.1l0-0.1c0-0.2-0.2-0.4-1-0.4l-1,0V117.7z
		"/>
	<path class="st0" d="M113.6,117C113.6,117,113.7,117,113.6,117c0.2,0.2,0.6,0.2,0.9,0.2c0.2,0,0.4,0,0.6-0.1
		c0.3-0.2,0.5-0.6,0.5-1.2c0-1-0.5-1.5-1.4-1.5c-0.2,0-0.5,0-0.6,0c0,0-0.1,0-0.1,0.1V117z M113,116.3c0-1.2,0-1.4,0-1.6
		c0-0.3-0.1-0.4-0.3-0.4c-0.1,0-0.2,0-0.3,0c0,0-0.1,0-0.1-0.1c0,0,0-0.1,0.1-0.1c0.4,0,0.9,0,0.9,0c0.1,0,0.7,0,1,0
		c0.5,0,1.1,0,1.5,0.3c0.2,0.1,0.6,0.5,0.6,1c0,0.6-0.2,1.1-1,1.7c0.6,0.8,1.2,1.5,1.7,2c0.4,0.4,0.7,0.5,0.9,0.5c0.2,0,0.2,0,0.3,0
		c0,0,0.1,0,0.1,0.1c0,0,0,0.1-0.2,0.1h-0.5c-0.5,0-0.6,0-0.8-0.2c-0.3-0.2-0.6-0.5-1.1-1.1c-0.3-0.4-0.7-0.9-0.9-1.1
		c0,0-0.1,0-0.1,0l-1,0c0,0-0.1,0-0.1,0.1v0.2c0,0.7,0,1.3,0,1.6c0,0.2,0.1,0.4,0.3,0.4c0.1,0,0.3,0,0.4,0c0.1,0,0.1,0,0.1,0.1
		c0,0,0,0.1-0.1,0.1c-0.4,0-0.9,0-1,0c0,0-0.5,0-0.8,0c-0.1,0-0.1,0-0.1-0.1c0,0,0-0.1,0.1-0.1c0.1,0,0.2,0,0.2,0
		c0.2,0,0.2-0.2,0.2-0.4c0-0.3,0-0.9,0-1.7V116.3z"/>
	<path class="st0" d="M118.8,116.3c0-1.2,0-1.4,0-1.6c0-0.3-0.1-0.4-0.3-0.4c-0.1,0-0.2,0-0.3,0c0,0-0.1,0-0.1-0.1
		c0,0,0-0.1,0.1-0.1c0.4,0,0.9,0,0.9,0c0.1,0,1.7,0,1.9,0c0.2,0,0.3,0,0.4,0c0,0,0.1,0,0.1,0c0,0,0,0,0,0.1c0,0.1,0,0.1-0.1,0.4
		c0,0.1,0,0.4,0,0.5c0,0,0,0.1-0.1,0.1c0,0-0.1,0-0.1-0.1c0-0.1,0-0.2,0-0.3c-0.1-0.1-0.1-0.2-0.6-0.2c-0.1,0-1.1,0-1.1,0
		c0,0,0,0,0,0.1v2.1c0,0.1,0,0.1,0,0.1c0.1,0,1.1,0,1.3,0c0.2,0,0.3,0,0.4-0.1c0.1-0.1,0.1-0.1,0.1-0.1c0,0,0,0,0,0.1
		c0,0,0,0.2-0.1,0.4c0,0.2,0,0.4,0,0.5c0,0.1,0,0.1-0.1,0.1c0,0-0.1,0-0.1-0.1c0-0.1,0-0.2,0-0.3c0-0.1-0.1-0.2-0.4-0.2
		c-0.2,0-1.1,0-1.2,0c0,0-0.1,0-0.1,0.1v0.6c0,0.3,0,1.2,0,1.3c0,0.5,0.2,0.6,0.9,0.6c0.2,0,0.6,0,0.8-0.1c0.2-0.1,0.3-0.2,0.4-0.5
		c0-0.1,0-0.1,0.1-0.1c0,0,0.1,0.1,0.1,0.1c0,0.1-0.1,0.6-0.1,0.7c-0.1,0.2-0.1,0.2-0.4,0.2c-0.6,0-1.1,0-1.4,0c-0.3,0-0.5,0-0.7,0
		c0,0-0.2,0-0.3,0c-0.2,0-0.3,0-0.5,0c-0.1,0-0.1,0-0.1-0.1c0,0,0-0.1,0.1-0.1c0.1,0,0.2,0,0.2,0c0.2,0,0.2-0.2,0.2-0.4
		c0-0.3,0-0.9,0-1.7V116.3z"/>
	<path class="st0" d="M123.4,118.8c0,0.6,0.1,0.8,0.3,0.9c0.1,0,0.3,0,0.4,0c0,0,0.1,0,0.1,0.1c0,0-0.1,0.1-0.1,0.1
		c-0.4,0-0.8,0-0.8,0c-0.1,0-0.4,0-0.8,0c-0.1,0-0.1,0-0.1-0.1c0,0,0-0.1,0.1-0.1c0.1,0,0.2,0,0.3,0c0.2-0.1,0.2-0.3,0.2-1v-4.4
		c0-0.3,0-0.4,0.1-0.4c0.1,0,0.2,0.2,0.3,0.2c0.1,0.1,1.3,1.3,2.5,2.6c0.8,0.8,1.6,1.7,1.9,2l-0.1-3.8c0-0.5-0.1-0.7-0.3-0.7
		c-0.1,0-0.3,0-0.4,0c-0.1,0-0.1,0-0.1-0.1c0,0,0.1-0.1,0.2-0.1c0.4,0,0.7,0,0.8,0c0.1,0,0.4,0,0.7,0c0.1,0,0.1,0,0.1,0.1
		c0,0,0,0.1-0.1,0.1c0,0-0.1,0-0.2,0c-0.3,0.1-0.3,0.2-0.3,0.7l0,4.5c0,0.5,0,0.5-0.1,0.5c-0.1,0-0.2-0.1-0.6-0.5
		c-0.1-0.1-1.2-1.2-2.1-2.1c-0.9-1-1.8-1.9-2.1-2.2L123.4,118.8z"/>
	<path class="st0" d="M133.6,117.9c0-0.6,0-0.7-0.3-0.8c-0.1,0-0.2,0-0.3,0c0,0-0.1,0-0.1-0.1c0-0.1,0-0.1,0.1-0.1
		c0.4,0,0.9,0,0.9,0c0,0,0.5,0,0.8,0c0.1,0,0.1,0,0.1,0.1c0,0,0,0.1-0.1,0.1c-0.1,0-0.1,0-0.2,0c-0.2,0-0.3,0.2-0.3,0.4
		c0,0.2,0,0.5,0,0.8v0.9c0,0.3,0,0.4-0.1,0.4c-0.5,0.3-1.2,0.3-1.7,0.3c-0.6,0-1.7-0.1-2.6-0.8c-0.5-0.4-0.9-1.2-0.9-2.2
		c0-1.2,0.6-2.1,1.3-2.5c0.7-0.4,1.5-0.5,2.1-0.5c0.5,0,1.1,0.1,1.2,0.1c0.2,0,0.4,0.1,0.6,0.1c0.1,0,0.1,0,0.1,0.1
		c0,0.1,0,0.3,0,1.1c0,0.1,0,0.2-0.1,0.2c0,0-0.1,0-0.1-0.1c0-0.1-0.1-0.3-0.2-0.5c-0.2-0.3-0.8-0.6-1.8-0.6c-0.5,0-1.1,0-1.7,0.5
		c-0.5,0.4-0.8,1-0.8,1.9c0,1.1,0.6,1.9,0.8,2.1c0.6,0.6,1.3,0.8,2,0.8c0.3,0,0.6,0,0.9-0.1c0.1-0.1,0.2-0.1,0.2-0.2V117.9z"/>
	<path class="st0" d="M137.8,117.7c0,0.7,0,1.3,0,1.7c0,0.2,0.1,0.4,0.3,0.4c0.1,0,0.3,0,0.4,0c0.1,0,0.1,0,0.1,0.1
		c0,0,0,0.1-0.1,0.1c-0.4,0-0.9,0-1,0c0,0-0.6,0-0.8,0c-0.1,0-0.1,0-0.1-0.1c0,0,0-0.1,0.1-0.1c0.1,0,0.2,0,0.2,0
		c0.2,0,0.2-0.2,0.2-0.4c0-0.3,0-0.9,0-1.7v-3.2l-1.1,0c-0.5,0-0.7,0.1-0.8,0.2c-0.1,0.1-0.1,0.2-0.1,0.2c0,0.1,0,0.1-0.1,0.1
		c0,0-0.1,0-0.1-0.1c0-0.1,0.2-0.8,0.2-0.8c0,0,0.1-0.1,0.1-0.1c0.1,0,0.1,0.1,0.4,0.1c0.2,0,0.5,0,0.6,0h3c0.3,0,0.4,0,0.6,0
		c0.1,0,0.2,0,0.2,0c0,0,0,0,0,0.1c0,0.2,0,0.8,0,0.9c0,0.1,0,0.1-0.1,0.1c0,0-0.1,0-0.1-0.1l0-0.1c0-0.2-0.2-0.4-1-0.4l-1,0V117.7z
		"/>
	<path class="st0" d="M145.9,117.7c0,0.7,0,1.3,0,1.7c0,0.2,0,0.4,0.3,0.4c0.1,0,0.3,0,0.4,0c0.1,0,0.1,0,0.1,0.1c0,0,0,0.1-0.1,0.1
		c-0.4,0-0.9,0-1,0c0,0-0.6,0-0.8,0c-0.1,0-0.1,0-0.1-0.1c0,0,0-0.1,0.1-0.1c0.1,0,0.2,0,0.2,0c0.2,0,0.2-0.2,0.2-0.4
		c0-0.3,0-0.9,0-1.6v-0.8c0,0,0,0,0,0h-3.3c0,0,0,0,0,0v0.8c0,0.7,0,1.3,0,1.6c0,0.2,0.1,0.4,0.3,0.4c0.1,0,0.3,0,0.4,0
		c0,0,0.1,0,0.1,0.1c0,0,0,0.1-0.1,0.1c-0.4,0-0.9,0-1,0c0,0-0.5,0-0.8,0c-0.1,0-0.1,0-0.1-0.1c0,0,0-0.1,0.1-0.1c0.1,0,0.2,0,0.2,0
		c0.2,0,0.2-0.2,0.2-0.4c0-0.3,0-0.9,0-1.7v-1.4c0-1.2,0-1.4,0-1.6c0-0.3-0.1-0.4-0.3-0.4c-0.1,0-0.2,0-0.3,0c0,0-0.1,0-0.1-0.1
		c0,0,0-0.1,0.1-0.1c0.4,0,0.9,0,0.9,0c0,0,0.5,0,0.8,0c0.1,0,0.1,0,0.1,0.1c0,0,0,0.1-0.1,0.1c-0.1,0-0.1,0-0.2,0
		c-0.2,0-0.3,0.2-0.3,0.4c0,0.2,0,0.5,0,1.7v0.2c0,0,0,0,0,0h3.3c0,0,0,0,0,0v-0.2c0-1.2,0-1.4,0-1.7c0-0.3-0.1-0.4-0.3-0.4
		c-0.1,0-0.2,0-0.3,0c0,0-0.1,0-0.1-0.1c0,0,0-0.1,0.1-0.1c0.4,0,0.9,0,0.9,0c0,0,0.5,0,0.8,0c0.1,0,0.1,0,0.1,0.1
		c0,0,0,0.1-0.1,0.1c-0.1,0-0.1,0-0.2,0c-0.2,0-0.3,0.2-0.3,0.4c0,0.2,0,0.5,0,1.6V117.7z"/>
	<path class="st0" d="M147.9,116.3c0-1.2,0-1.4,0-1.6c0-0.3-0.1-0.4-0.3-0.4c-0.1,0-0.2,0-0.3,0c0,0-0.1,0-0.1-0.1
		c0,0,0-0.1,0.1-0.1c0.4,0,0.9,0,0.9,0c0.1,0,1.7,0,1.9,0c0.2,0,0.3,0,0.4,0c0,0,0.1,0,0.1,0c0,0,0,0,0,0.1c0,0.1,0,0.1-0.1,0.4
		c0,0.1,0,0.4,0,0.5c0,0,0,0.1-0.1,0.1c0,0-0.1,0-0.1-0.1c0-0.1,0-0.2,0-0.3c-0.1-0.1-0.1-0.2-0.6-0.2c-0.1,0-1.1,0-1.1,0
		c0,0,0,0,0,0.1v2.1c0,0.1,0,0.1,0,0.1c0.1,0,1.1,0,1.3,0c0.2,0,0.3,0,0.4-0.1c0.1-0.1,0.1-0.1,0.1-0.1c0,0,0,0,0,0.1
		c0,0,0,0.2-0.1,0.4c0,0.2,0,0.4,0,0.5c0,0.1,0,0.1-0.1,0.1c0,0-0.1,0-0.1-0.1c0-0.1,0-0.2,0-0.3c0-0.1-0.1-0.2-0.4-0.2
		c-0.2,0-1.1,0-1.2,0c0,0-0.1,0-0.1,0.1v0.6c0,0.3,0,1.2,0,1.3c0,0.5,0.2,0.6,0.9,0.6c0.2,0,0.6,0,0.8-0.1c0.2-0.1,0.3-0.2,0.4-0.5
		c0-0.1,0-0.1,0.1-0.1c0,0,0.1,0.1,0.1,0.1c0,0.1-0.1,0.6-0.1,0.7c-0.1,0.2-0.1,0.2-0.4,0.2c-0.6,0-1.1,0-1.4,0c-0.3,0-0.5,0-0.7,0
		c0,0-0.2,0-0.3,0c-0.2,0-0.3,0-0.5,0c-0.1,0-0.1,0-0.1-0.1c0,0,0-0.1,0.1-0.1c0.1,0,0.2,0,0.2,0c0.2,0,0.2-0.2,0.2-0.4
		c0-0.3,0-0.9,0-1.7V116.3z"/>
	<path class="st0" d="M152.5,118.8c0,0.6,0.1,0.8,0.3,0.9c0.1,0,0.3,0,0.4,0c0,0,0.1,0,0.1,0.1c0,0-0.1,0.1-0.1,0.1
		c-0.4,0-0.8,0-0.8,0c-0.1,0-0.4,0-0.8,0c-0.1,0-0.1,0-0.1-0.1c0,0,0-0.1,0.1-0.1c0.1,0,0.2,0,0.3,0c0.2-0.1,0.2-0.3,0.2-1v-4.4
		c0-0.3,0-0.4,0.1-0.4c0.1,0,0.2,0.2,0.3,0.2c0.1,0.1,1.3,1.3,2.5,2.6c0.8,0.8,1.6,1.7,1.9,2l-0.1-3.8c0-0.5-0.1-0.7-0.3-0.7
		c-0.1,0-0.3,0-0.4,0c-0.1,0-0.1,0-0.1-0.1c0,0,0.1-0.1,0.2-0.1c0.4,0,0.7,0,0.8,0s0.4,0,0.7,0c0.1,0,0.1,0,0.1,0.1
		c0,0,0,0.1-0.1,0.1c0,0-0.1,0-0.2,0c-0.3,0.1-0.3,0.2-0.3,0.7l0,4.5c0,0.5,0,0.5-0.1,0.5c-0.1,0-0.2-0.1-0.6-0.5
		c-0.1-0.1-1.2-1.2-2.1-2.1c-0.9-1-1.8-1.9-2.1-2.2L152.5,118.8z"/>
	<path class="st0" d="M159.7,117.7c0,0.7,0,1.3,0,1.7c0,0.2,0.1,0.4,0.3,0.4c0.1,0,0.3,0,0.4,0c0,0,0.1,0,0.1,0.1c0,0,0,0.1-0.1,0.1
		c-0.4,0-1,0-1,0c0,0-0.5,0-0.8,0c-0.1,0-0.1,0-0.1-0.1c0,0,0-0.1,0.1-0.1c0.1,0,0.2,0,0.2,0c0.2,0,0.2-0.2,0.2-0.4
		c0-0.3,0-0.9,0-1.7v-1.4c0-1.2,0-1.4,0-1.6c0-0.3-0.1-0.4-0.3-0.4c-0.1,0-0.2,0-0.2,0c0,0-0.1,0-0.1-0.1c0,0,0-0.1,0.1-0.1
		c0.3,0,0.8,0,0.8,0c0,0,0.6,0,0.8,0c0.1,0,0.1,0,0.1,0.1c0,0,0,0.1-0.1,0.1c-0.1,0-0.1,0-0.2,0c-0.2,0-0.3,0.2-0.3,0.4
		c0,0.2,0,0.5,0,1.6V117.7z"/>
	<path class="st0" d="M162.1,118.8c0,0.6,0.1,0.8,0.3,0.9c0.1,0,0.3,0,0.4,0c0,0,0.1,0,0.1,0.1c0,0-0.1,0.1-0.1,0.1
		c-0.4,0-0.8,0-0.8,0c-0.1,0-0.4,0-0.8,0c-0.1,0-0.1,0-0.1-0.1c0,0,0-0.1,0.1-0.1c0.1,0,0.2,0,0.3,0c0.2-0.1,0.2-0.3,0.2-1v-4.4
		c0-0.3,0-0.4,0.1-0.4c0.1,0,0.2,0.2,0.3,0.2c0.1,0.1,1.3,1.3,2.5,2.6c0.8,0.8,1.6,1.7,1.9,2l-0.1-3.8c0-0.5-0.1-0.7-0.3-0.7
		c-0.1,0-0.3,0-0.4,0c-0.1,0-0.1,0-0.1-0.1c0,0,0.1-0.1,0.2-0.1c0.4,0,0.7,0,0.8,0s0.4,0,0.7,0c0.1,0,0.1,0,0.1,0.1
		c0,0,0,0.1-0.1,0.1c0,0-0.1,0-0.2,0c-0.3,0.1-0.3,0.2-0.3,0.7l0,4.5c0,0.5,0,0.5-0.1,0.5c-0.1,0-0.2-0.1-0.6-0.5
		c-0.1-0.1-1.2-1.2-2.1-2.1c-0.9-1-1.8-1.9-2.1-2.2L162.1,118.8z"/>
	<path class="st0" d="M172.3,117.9c0-0.6,0-0.7-0.3-0.8c-0.1,0-0.2,0-0.3,0c0,0-0.1,0-0.1-0.1c0-0.1,0-0.1,0.1-0.1
		c0.4,0,0.9,0,0.9,0c0,0,0.5,0,0.8,0c0.1,0,0.1,0,0.1,0.1c0,0,0,0.1-0.1,0.1c-0.1,0-0.1,0-0.2,0c-0.2,0-0.3,0.2-0.3,0.4
		c0,0.2,0,0.5,0,0.8v0.9c0,0.3,0,0.4-0.1,0.4c-0.5,0.3-1.2,0.3-1.7,0.3c-0.6,0-1.7-0.1-2.6-0.8c-0.5-0.4-0.9-1.2-0.9-2.2
		c0-1.2,0.6-2.1,1.3-2.5c0.7-0.4,1.5-0.5,2.1-0.5c0.5,0,1.1,0.1,1.2,0.1c0.2,0,0.4,0.1,0.6,0.1c0.1,0,0.1,0,0.1,0.1
		c0,0.1,0,0.3,0,1.1c0,0.1,0,0.2-0.1,0.2c0,0-0.1,0-0.1-0.1c0-0.1-0.1-0.3-0.2-0.5c-0.2-0.3-0.8-0.6-1.8-0.6c-0.5,0-1.1,0-1.7,0.5
		c-0.5,0.4-0.8,1-0.8,1.9c0,1.1,0.6,1.9,0.8,2.1c0.6,0.6,1.3,0.8,2,0.8c0.3,0,0.6,0,0.9-0.1c0.1-0.1,0.2-0.1,0.2-0.2V117.9z"/>
	<path class="st0" d="M44.5,128.1c0,0.9,0,1.6,0,2c0,0.3,0.1,0.5,0.4,0.5c0.1,0,0.3,0,0.4,0c0.1,0,0.1,0,0.1,0.1c0,0,0,0.1-0.1,0.1
		c-0.5,0-1.1,0-1.1,0c0,0-0.6,0-0.9,0c-0.1,0-0.1,0-0.1-0.1c0,0,0-0.1,0.1-0.1c0.1,0,0.2,0,0.3,0c0.2,0,0.2-0.2,0.3-0.5
		c0-0.4,0-1.1,0-2v-3.8l-1.3,0c-0.6,0-0.8,0.1-0.9,0.3c-0.1,0.2-0.1,0.2-0.2,0.3c0,0.1-0.1,0.1-0.1,0.1c0,0,0,0,0-0.1
		c0-0.1,0.2-0.9,0.2-0.9c0-0.1,0.1-0.2,0.1-0.2c0.1,0,0.2,0.1,0.4,0.1c0.3,0,0.6,0,0.7,0H46c0.3,0,0.5,0,0.6,0c0.1,0,0.2,0,0.3,0
		c0,0,0,0.1,0,0.1c0,0.3,0,0.9,0,1c0,0.1,0,0.1-0.1,0.1c0,0-0.1,0-0.1-0.2l0-0.1c0-0.3-0.2-0.5-1.1-0.5l-1.1,0V128.1z"/>
	<path class="st0" d="M49.9,128.2C50,128.2,50,128.2,49.9,128.2l-0.8-2.2c0-0.1-0.1-0.1-0.1,0l-0.7,2.1c0,0,0,0.1,0,0.1H49.9z
		 M49,125c0.1-0.3,0.1-0.3,0.2-0.3c0.1,0,0.1,0.1,0.2,0.3c0.1,0.3,1.4,3.5,1.9,4.6c0.3,0.7,0.5,0.8,0.7,0.8c0.1,0,0.2,0,0.3,0
		c0,0,0.1,0,0.1,0.1s-0.1,0.1-0.2,0.1c-0.1,0-0.7,0-1.3,0c-0.2,0-0.3,0-0.3-0.1c0,0,0,0,0.1-0.1c0,0,0.1-0.1,0.1-0.2l-0.7-1.8
		c0,0,0,0-0.1,0h-1.8c0,0-0.1,0-0.1,0.1l-0.5,1.2c-0.1,0.2-0.1,0.4-0.1,0.5c0,0.2,0.1,0.2,0.3,0.2h0.1c0.1,0,0.1,0,0.1,0.1
		c0,0,0,0.1-0.1,0.1c-0.2,0-0.6,0-0.7,0c-0.1,0-0.5,0-0.8,0c-0.1,0-0.2,0-0.2-0.1c0,0,0-0.1,0.1-0.1c0.1,0,0.2,0,0.2,0
		c0.4,0,0.5-0.3,0.7-0.7L49,125z"/>
	<path class="st0" d="M52.6,130.6c-0.1-0.1-0.1-0.1-0.1-0.3c0-0.4,0-0.7,0-0.8c0-0.1,0-0.1,0.1-0.1c0,0,0.1,0,0.1,0.1
		c0,0.1,0,0.2,0,0.3c0.1,0.6,0.7,0.8,1.3,0.8c0.8,0,1.2-0.4,1.2-1c0-0.5-0.3-0.8-1-1.3l-0.4-0.3c-0.9-0.6-1.1-1.1-1.1-1.6
		c0-0.9,0.7-1.4,1.8-1.4c0.3,0,0.6,0,0.8,0.1c0.2,0,0.2,0,0.3,0s0.1,0,0.1,0.1c0,0,0,0.3,0,0.8c0,0.1,0,0.2-0.1,0.2s-0.1,0-0.1-0.1
		c0-0.1-0.1-0.3-0.1-0.4c-0.1-0.1-0.3-0.4-1-0.4c-0.6,0-1.1,0.3-1.1,0.8c0,0.5,0.2,0.8,1,1.3l0.2,0.2c1,0.7,1.3,1.2,1.3,1.8
		c0,0.4-0.2,0.9-0.7,1.3c-0.3,0.2-0.8,0.3-1.3,0.3C53.4,130.8,52.9,130.7,52.6,130.6"/>
	<path class="st0" d="M63,129.7c0,0.3,0.1,0.7,0.4,0.8c0.2,0.1,0.4,0.1,0.5,0.1c0,0,0.1,0,0.1,0.1c0,0-0.1,0.1-0.2,0.1
		c-0.2,0-1.1,0-1.3,0c-0.2,0-0.2,0-0.2-0.1c0,0,0-0.1,0.1-0.1c0,0,0.1-0.1,0-0.3l-0.4-3.9h0l-1.9,3.9c-0.2,0.3-0.2,0.4-0.3,0.4
		c-0.1,0-0.1-0.1-0.3-0.4c-0.2-0.4-0.7-1.4-0.9-1.8c-0.2-0.5-0.9-1.8-1-2.1h0l-0.3,3.5c0,0.1,0,0.3,0,0.4c0,0.1,0.1,0.2,0.2,0.2
		c0.1,0,0.3,0,0.3,0c0,0,0.1,0,0.1,0.1c0,0.1-0.1,0.1-0.1,0.1c-0.3,0-0.7,0-0.7,0c-0.1,0-0.5,0-0.7,0c-0.1,0-0.1,0-0.1-0.1
		c0,0,0-0.1,0.1-0.1c0.1,0,0.1,0,0.2,0c0.3,0,0.3-0.3,0.3-0.6l0.6-5c0-0.1,0-0.1,0.1-0.1c0.1,0,0.1,0,0.2,0.1l2.4,4.8l2.3-4.7
		c0-0.1,0.1-0.1,0.1-0.1s0.1,0.1,0.1,0.2L63,129.7z"/>
	<path class="st0" d="M67.5,128.2C67.5,128.2,67.5,128.2,67.5,128.2l-0.8-2.2c0-0.1-0.1-0.1-0.1,0l-0.7,2.1c0,0,0,0.1,0,0.1H67.5z
		 M66.6,125c0.1-0.3,0.1-0.3,0.2-0.3c0.1,0,0.1,0.1,0.2,0.3c0.1,0.3,1.4,3.5,1.9,4.6c0.3,0.7,0.5,0.8,0.7,0.8c0.1,0,0.2,0,0.3,0
		c0,0,0.1,0,0.1,0.1s-0.1,0.1-0.2,0.1c-0.1,0-0.7,0-1.3,0c-0.2,0-0.3,0-0.3-0.1c0,0,0,0,0.1-0.1c0,0,0.1-0.1,0.1-0.2l-0.7-1.8
		c0,0,0,0-0.1,0h-1.8c0,0-0.1,0-0.1,0.1l-0.4,1.2c-0.1,0.2-0.1,0.4-0.1,0.5c0,0.2,0.1,0.2,0.3,0.2h0.1c0.1,0,0.1,0,0.1,0.1
		c0,0,0,0.1-0.1,0.1c-0.2,0-0.6,0-0.7,0c-0.1,0-0.5,0-0.8,0c-0.1,0-0.2,0-0.2-0.1c0,0,0-0.1,0.1-0.1c0.1,0,0.2,0,0.2,0
		c0.4,0,0.5-0.3,0.7-0.7L66.6,125z"/>
	<path class="st0" d="M71.1,129.6c0,0.6,0.1,0.8,0.3,0.9c0.1,0,0.3,0,0.4,0c0,0,0.1,0,0.1,0.1c0,0-0.1,0.1-0.1,0.1
		c-0.4,0-0.8,0-0.8,0s-0.4,0-0.8,0c-0.1,0-0.1,0-0.1-0.1c0,0,0-0.1,0.1-0.1c0.1,0,0.2,0,0.3,0c0.2-0.1,0.2-0.3,0.2-1v-4.4
		c0-0.3,0-0.4,0.1-0.4c0.1,0,0.2,0.2,0.3,0.2c0.1,0.1,1.3,1.4,2.5,2.6c0.8,0.8,1.6,1.7,1.9,2l-0.1-3.8c0-0.5-0.1-0.7-0.3-0.7
		c-0.1,0-0.3,0-0.4,0c-0.1,0-0.1,0-0.1-0.1c0,0,0.1-0.1,0.2-0.1c0.4,0,0.7,0,0.8,0c0.1,0,0.4,0,0.7,0c0.1,0,0.1,0,0.1,0.1
		c0,0,0,0.1-0.1,0.1c0,0-0.1,0-0.2,0c-0.3,0.1-0.3,0.2-0.3,0.7l0,4.5c0,0.5,0,0.5-0.1,0.5c-0.1,0-0.2-0.1-0.6-0.5
		c-0.1-0.1-1.2-1.2-2.1-2.1c-0.9-1-1.8-1.9-2.1-2.2L71.1,129.6z"/>
	<path class="st0" d="M78.3,128.5c0,0.7,0,1.3,0,1.7c0,0.2,0.1,0.4,0.3,0.4c0.1,0,0.3,0,0.4,0c0,0,0.1,0,0.1,0.1c0,0,0,0.1-0.1,0.1
		c-0.4,0-1,0-1,0c0,0-0.5,0-0.8,0c-0.1,0-0.1,0-0.1-0.1c0,0,0-0.1,0.1-0.1c0.1,0,0.2,0,0.2,0c0.2,0,0.2-0.2,0.2-0.4
		c0-0.3,0-0.9,0-1.7v-1.4c0-1.2,0-1.4,0-1.6c0-0.3-0.1-0.4-0.3-0.4c-0.1,0-0.2,0-0.2,0c0,0-0.1,0-0.1-0.1c0,0,0-0.1,0.1-0.1
		c0.3,0,0.8,0,0.8,0c0,0,0.5,0,0.8,0c0.1,0,0.1,0,0.1,0.1c0,0,0,0.1-0.1,0.1c-0.1,0-0.1,0-0.2,0c-0.2,0-0.3,0.2-0.3,0.4
		c0,0.2,0,0.5,0,1.6V128.5z"/>
	<path class="st0" d="M82.9,128.2C83,128.2,83,128.2,82.9,128.2l-0.8-2.2c0-0.1-0.1-0.1-0.1,0l-0.7,2.1c0,0,0,0.1,0,0.1H82.9z
		 M82,125c0.1-0.3,0.1-0.3,0.2-0.3c0.1,0,0.1,0.1,0.2,0.3c0.1,0.3,1.4,3.5,1.9,4.6c0.3,0.7,0.5,0.8,0.7,0.8c0.1,0,0.2,0,0.3,0
		c0,0,0.1,0,0.1,0.1s-0.1,0.1-0.2,0.1c-0.1,0-0.7,0-1.3,0c-0.2,0-0.3,0-0.3-0.1c0,0,0,0,0.1-0.1c0,0,0.1-0.1,0.1-0.2l-0.7-1.8
		c0,0,0,0-0.1,0h-1.8c0,0-0.1,0-0.1,0.1l-0.4,1.2c-0.1,0.2-0.1,0.4-0.1,0.5c0,0.2,0.1,0.2,0.3,0.2h0.1c0.1,0,0.1,0,0.1,0.1
		c0,0,0,0.1-0.1,0.1c-0.2,0-0.6,0-0.7,0c-0.1,0-0.5,0-0.8,0c-0.1,0-0.2,0-0.2-0.1c0,0,0-0.1,0.1-0.1c0.1,0,0.2,0,0.2,0
		c0.4,0,0.5-0.3,0.7-0.7L82,125z"/>
	<path class="st0" d="M86.6,129.6c0,0.6,0.1,0.8,0.3,0.9c0.1,0,0.3,0,0.4,0c0,0,0.1,0,0.1,0.1c0,0-0.1,0.1-0.1,0.1
		c-0.4,0-0.8,0-0.8,0c-0.1,0-0.4,0-0.8,0c-0.1,0-0.1,0-0.1-0.1c0,0,0-0.1,0.1-0.1c0.1,0,0.2,0,0.3,0c0.2-0.1,0.2-0.3,0.2-1v-4.4
		c0-0.3,0-0.4,0.1-0.4c0.1,0,0.2,0.2,0.3,0.2c0.1,0.1,1.3,1.4,2.5,2.6c0.8,0.8,1.6,1.7,1.9,2l-0.1-3.8c0-0.5-0.1-0.7-0.3-0.7
		c-0.1,0-0.3,0-0.4,0c-0.1,0-0.1,0-0.1-0.1c0,0,0.1-0.1,0.2-0.1c0.4,0,0.7,0,0.8,0c0.1,0,0.4,0,0.7,0c0.1,0,0.1,0,0.1,0.1
		c0,0,0,0.1-0.1,0.1c0,0-0.1,0-0.2,0c-0.3,0.1-0.3,0.2-0.3,0.7l0,4.5c0,0.5,0,0.5-0.1,0.5c-0.1,0-0.2-0.1-0.6-0.5
		c-0.1-0.1-1.2-1.2-2.1-2.1c-0.9-1-1.8-1.9-2.1-2.2L86.6,129.6z"/>
	<path class="st0" d="M95.6,129.8c-0.9-0.8-1.1-1.8-1.1-2.7c0-0.6,0.2-1.7,1-2.5c0.5-0.5,1.4-1,2.7-1c0.4,0,0.9,0,1.3,0.1
		c0.3,0.1,0.6,0.1,0.9,0.1c0.1,0,0.1,0,0.1,0.1c0,0.1,0,0.2,0,0.5c0,0.3,0,0.8,0,0.9c0,0.1,0,0.2-0.1,0.2c-0.1,0-0.1-0.1-0.1-0.2
		c0-0.4-0.1-0.7-0.4-0.9c-0.3-0.3-1-0.5-1.8-0.5c-1.2,0-1.8,0.3-2.1,0.7c-0.7,0.6-0.8,1.4-0.8,2.3c0,1.7,1.3,3.3,3.2,3.3
		c0.7,0,1.2-0.1,1.6-0.5c0.2-0.2,0.3-0.6,0.3-0.8c0-0.1,0-0.1,0.1-0.1c0,0,0.1,0.1,0.1,0.1c0,0.1-0.1,0.8-0.2,1.2
		c-0.1,0.2-0.1,0.2-0.2,0.3c-0.4,0.1-1,0.2-1.6,0.2C97.2,130.8,96.3,130.5,95.6,129.8"/>
	<path class="st0" d="M104.3,130.5c0.7,0,2.1-0.4,2.1-2.6c0-1.8-1.1-2.8-2.4-2.8c-1.3,0-2.3,0.8-2.3,2.5
		C101.8,129.4,102.9,130.5,104.3,130.5 M104.1,124.8c1.8,0,3.1,1.1,3.1,2.9c0,1.7-1.3,3.1-3.2,3.1c-2.2,0-3.1-1.6-3.1-3
		C101,126.5,102,124.8,104.1,124.8"/>
	<path class="st0" d="M114.4,129.7c0,0.3,0.1,0.7,0.4,0.8c0.2,0.1,0.4,0.1,0.5,0.1c0,0,0.1,0,0.1,0.1c0,0-0.1,0.1-0.2,0.1
		c-0.2,0-1.1,0-1.3,0c-0.2,0-0.2,0-0.2-0.1c0,0,0-0.1,0.1-0.1c0,0,0.1-0.1,0-0.3l-0.4-3.9h0l-1.9,3.9c-0.2,0.3-0.2,0.4-0.3,0.4
		c-0.1,0-0.1-0.1-0.3-0.4c-0.2-0.4-0.7-1.4-0.9-1.8c-0.2-0.5-0.9-1.8-1-2.1h0l-0.3,3.5c0,0.1,0,0.3,0,0.4c0,0.1,0.1,0.2,0.2,0.2
		c0.1,0,0.3,0,0.3,0c0,0,0.1,0,0.1,0.1c0,0.1-0.1,0.1-0.1,0.1c-0.3,0-0.7,0-0.7,0c-0.1,0-0.4,0-0.7,0c-0.1,0-0.1,0-0.1-0.1
		c0,0,0-0.1,0.1-0.1c0.1,0,0.1,0,0.2,0c0.3,0,0.3-0.3,0.3-0.6l0.6-5c0-0.1,0-0.1,0.1-0.1c0.1,0,0.1,0,0.2,0.1l2.4,4.8l2.3-4.7
		c0-0.1,0.1-0.1,0.1-0.1c0.1,0,0.1,0.1,0.1,0.2L114.4,129.7z"/>
	<path class="st0" d="M122.4,129.7c0,0.3,0.1,0.7,0.4,0.8c0.2,0.1,0.4,0.1,0.5,0.1c0,0,0.1,0,0.1,0.1c0,0-0.1,0.1-0.2,0.1
		c-0.2,0-1.1,0-1.3,0c-0.2,0-0.2,0-0.2-0.1c0,0,0-0.1,0.1-0.1c0,0,0.1-0.1,0-0.3l-0.4-3.9h0l-1.9,3.9c-0.2,0.3-0.2,0.4-0.3,0.4
		c-0.1,0-0.1-0.1-0.3-0.4c-0.2-0.4-0.7-1.4-0.9-1.8c-0.2-0.5-0.9-1.8-1-2.1h0l-0.3,3.5c0,0.1,0,0.3,0,0.4c0,0.1,0.1,0.2,0.2,0.2
		c0.1,0,0.3,0,0.3,0c0,0,0.1,0,0.1,0.1c0,0.1-0.1,0.1-0.1,0.1c-0.3,0-0.7,0-0.7,0c-0.1,0-0.4,0-0.7,0c-0.1,0-0.1,0-0.1-0.1
		c0,0,0-0.1,0.1-0.1c0.1,0,0.1,0,0.2,0c0.3,0,0.3-0.3,0.3-0.6l0.6-5c0-0.1,0-0.1,0.1-0.1c0.1,0,0.1,0,0.2,0.1l2.4,4.8l2.3-4.7
		c0-0.1,0.1-0.1,0.1-0.1c0.1,0,0.1,0.1,0.1,0.2L122.4,129.7z"/>
	<path class="st0" d="M123.6,127.1c0-1.2,0-1.4,0-1.6c0-0.2-0.1-0.4-0.3-0.4c-0.1,0-0.2,0-0.3,0c0,0-0.1,0-0.1-0.1
		c0,0,0-0.1,0.1-0.1c0.4,0,0.8,0,0.9,0c0.1,0,0.6,0,0.8,0c0.1,0,0.1,0,0.1,0.1c0,0,0,0.1-0.1,0.1c-0.1,0-0.1,0-0.2,0
		c-0.2,0-0.3,0.2-0.3,0.4c0,0.2,0,0.5,0,1.6v1.1c0,1.1,0.2,1.6,0.6,1.9c0.4,0.4,0.7,0.4,1.2,0.4c0.5,0,1-0.2,1.2-0.5
		c0.4-0.4,0.4-1.1,0.4-1.9v-1c0-1.2,0-1.4,0-1.6c0-0.2-0.1-0.4-0.3-0.4c-0.1,0-0.2,0-0.3,0c0,0-0.1,0-0.1-0.1c0,0,0-0.1,0.1-0.1
		c0.4,0,0.8,0,0.9,0c0.1,0,0.4,0,0.7,0c0.1,0,0.1,0,0.1,0.1c0,0,0,0.1-0.1,0.1c-0.1,0-0.1,0-0.2,0c-0.2,0-0.3,0.2-0.3,0.4
		c0,0.2,0,0.5,0,1.6v0.8c0,0.8-0.1,1.8-0.7,2.3c-0.6,0.5-1.2,0.6-1.7,0.6c-0.3,0-1.1,0-1.6-0.5c-0.4-0.4-0.7-0.9-0.7-2V127.1z"/>
	<path class="st0" d="M130.2,129.6c0,0.6,0.1,0.8,0.3,0.9c0.1,0,0.3,0,0.4,0c0,0,0.1,0,0.1,0.1c0,0-0.1,0.1-0.1,0.1
		c-0.4,0-0.8,0-0.8,0c-0.1,0-0.4,0-0.8,0c-0.1,0-0.1,0-0.1-0.1c0,0,0-0.1,0.1-0.1c0.1,0,0.2,0,0.3,0c0.2-0.1,0.2-0.3,0.2-1v-4.4
		c0-0.3,0-0.4,0.1-0.4c0.1,0,0.2,0.2,0.3,0.2c0.1,0.1,1.3,1.4,2.5,2.6c0.8,0.8,1.6,1.7,1.9,2l-0.1-3.8c0-0.5-0.1-0.7-0.3-0.7
		c-0.1,0-0.3,0-0.4,0c-0.1,0-0.1,0-0.1-0.1c0,0,0.1-0.1,0.2-0.1c0.4,0,0.7,0,0.8,0s0.4,0,0.7,0c0.1,0,0.1,0,0.1,0.1
		c0,0,0,0.1-0.1,0.1c0,0-0.1,0-0.2,0c-0.3,0.1-0.3,0.2-0.3,0.7l0,4.5c0,0.5,0,0.5-0.1,0.5c-0.1,0-0.2-0.1-0.6-0.5
		c-0.1-0.1-1.2-1.2-2.1-2.1c-0.9-1-1.8-1.9-2.1-2.2L130.2,129.6z"/>
	<path class="st0" d="M137.3,128.5c0,0.7,0,1.3,0,1.7c0,0.2,0.1,0.4,0.3,0.4c0.1,0,0.3,0,0.4,0c0,0,0.1,0,0.1,0.1c0,0,0,0.1-0.1,0.1
		c-0.4,0-1,0-1,0c0,0-0.5,0-0.8,0c-0.1,0-0.1,0-0.1-0.1c0,0,0-0.1,0.1-0.1c0.1,0,0.2,0,0.2,0c0.2,0,0.2-0.2,0.2-0.4
		c0-0.3,0-0.9,0-1.7v-1.4c0-1.2,0-1.4,0-1.6c0-0.3-0.1-0.4-0.3-0.4c-0.1,0-0.2,0-0.2,0c0,0-0.1,0-0.1-0.1c0,0,0-0.1,0.1-0.1
		c0.3,0,0.8,0,0.8,0c0,0,0.6,0,0.8,0c0.1,0,0.1,0,0.1,0.1c0,0,0,0.1-0.1,0.1c-0.1,0-0.1,0-0.2,0c-0.2,0-0.3,0.2-0.3,0.4
		c0,0.2,0,0.5,0,1.6V128.5z"/>
	<path class="st0" d="M141.2,128.5c0,0.7,0,1.3,0,1.7c0,0.2,0.1,0.4,0.3,0.4c0.1,0,0.3,0,0.4,0c0.1,0,0.1,0,0.1,0.1
		c0,0,0,0.1-0.1,0.1c-0.4,0-0.9,0-1,0c0,0-0.6,0-0.8,0c-0.1,0-0.1,0-0.1-0.1c0,0,0-0.1,0.1-0.1c0.1,0,0.2,0,0.2,0
		c0.2,0,0.2-0.2,0.2-0.4c0-0.3,0-0.9,0-1.7v-3.2l-1.1,0c-0.5,0-0.7,0.1-0.8,0.2c-0.1,0.1-0.1,0.2-0.1,0.2c0,0.1,0,0.1-0.1,0.1
		c0,0-0.1,0-0.1-0.1c0-0.1,0.2-0.8,0.2-0.8c0,0,0.1-0.1,0.1-0.1c0.1,0,0.1,0.1,0.4,0.1c0.2,0,0.5,0,0.6,0h3c0.3,0,0.4,0,0.6,0
		c0.1,0,0.2,0,0.2,0c0,0,0,0,0,0.1c0,0.2,0,0.8,0,0.9c0,0.1,0,0.1-0.1,0.1c0,0-0.1,0-0.1-0.1l0-0.1c0-0.2-0.2-0.4-1-0.4l-1,0V128.5z
		"/>
	<path class="st0" d="M145.1,128.5c0,0.7,0,1.3,0,1.7c0,0.2,0.1,0.4,0.3,0.4c0.1,0,0.3,0,0.4,0c0,0,0.1,0,0.1,0.1c0,0,0,0.1-0.1,0.1
		c-0.4,0-1,0-1,0c0,0-0.5,0-0.8,0c-0.1,0-0.1,0-0.1-0.1c0,0,0-0.1,0.1-0.1c0.1,0,0.2,0,0.2,0c0.2,0,0.2-0.2,0.2-0.4
		c0-0.3,0-0.9,0-1.7v-1.4c0-1.2,0-1.4,0-1.6c0-0.3-0.1-0.4-0.3-0.4c-0.1,0-0.2,0-0.2,0c0,0-0.1,0-0.1-0.1c0,0,0-0.1,0.1-0.1
		c0.3,0,0.8,0,0.8,0c0,0,0.6,0,0.8,0c0.1,0,0.1,0,0.1,0.1c0,0,0,0.1-0.1,0.1c-0.1,0-0.1,0-0.2,0c-0.2,0-0.3,0.2-0.3,0.4
		c0,0.2,0,0.5,0,1.6V128.5z"/>
	<path class="st0" d="M147.1,127.1c0-1.2,0-1.4,0-1.6c0-0.3-0.1-0.4-0.3-0.4c-0.1,0-0.2,0-0.3,0c0,0-0.1,0-0.1-0.1
		c0,0,0-0.1,0.1-0.1c0.4,0,0.9,0,0.9,0c0.1,0,1.7,0,1.9,0c0.2,0,0.3,0,0.4,0c0,0,0.1,0,0.1,0c0,0,0,0,0,0.1c0,0.1,0,0.1-0.1,0.4
		c0,0.1,0,0.4,0,0.5c0,0,0,0.1-0.1,0.1c0,0-0.1,0-0.1-0.1c0-0.1,0-0.2,0-0.3c-0.1-0.1-0.1-0.2-0.6-0.2c-0.1,0-1.1,0-1.1,0
		c0,0,0,0,0,0.1v2.1c0,0.1,0,0.1,0,0.1c0.1,0,1.1,0,1.3,0c0.2,0,0.3,0,0.4-0.1c0.1-0.1,0.1-0.1,0.1-0.1c0,0,0,0,0,0.1
		c0,0,0,0.2-0.1,0.4c0,0.2,0,0.4,0,0.5c0,0.1,0,0.1-0.1,0.1c0,0-0.1,0-0.1-0.1c0-0.1,0-0.2,0-0.3c0-0.1-0.1-0.2-0.4-0.2
		c-0.2,0-1.1,0-1.2,0c0,0-0.1,0-0.1,0.1v0.6c0,0.3,0,1.2,0,1.3c0,0.5,0.2,0.6,0.9,0.6c0.2,0,0.6,0,0.8-0.1c0.2-0.1,0.3-0.2,0.4-0.5
		c0-0.1,0-0.1,0.1-0.1c0,0,0.1,0.1,0.1,0.1c0,0.1-0.1,0.6-0.1,0.7c-0.1,0.2-0.1,0.2-0.4,0.2c-0.6,0-1.1,0-1.4,0c-0.3,0-0.5,0-0.7,0
		c0,0-0.2,0-0.3,0c-0.2,0-0.3,0-0.5,0c-0.1,0-0.1,0-0.1-0.1c0,0,0-0.1,0.1-0.1c0.1,0,0.2,0,0.2,0c0.2,0,0.2-0.2,0.2-0.4
		c0-0.3,0-0.9,0-1.7V127.1z"/>
	<path class="st0" d="M150.7,130.6c-0.1-0.1-0.1-0.1-0.1-0.3c0-0.4,0-0.7,0-0.8c0-0.1,0-0.1,0.1-0.1c0,0,0.1,0,0.1,0.1
		c0,0.1,0,0.2,0,0.3c0.1,0.6,0.7,0.8,1.3,0.8c0.8,0,1.2-0.4,1.2-1c0-0.5-0.3-0.8-1-1.3l-0.4-0.3c-0.9-0.6-1.1-1.1-1.1-1.6
		c0-0.9,0.7-1.4,1.8-1.4c0.3,0,0.6,0,0.8,0.1c0.2,0,0.2,0,0.3,0c0.1,0,0.1,0,0.1,0.1c0,0,0,0.3,0,0.8c0,0.1,0,0.2-0.1,0.2
		c-0.1,0-0.1,0-0.1-0.1c0-0.1-0.1-0.3-0.1-0.4c-0.1-0.1-0.3-0.4-1-0.4c-0.6,0-1.1,0.3-1.1,0.8c0,0.5,0.2,0.8,1,1.3l0.2,0.2
		c1,0.7,1.3,1.2,1.3,1.8c0,0.4-0.2,0.9-0.7,1.3c-0.3,0.2-0.8,0.3-1.3,0.3C151.5,130.8,151,130.7,150.7,130.6"/>
</g>
<rect x="41.7" y="107.2" class="st1" width="112.6" height="0.5"/>
</svg>
